<svg width="60" height="60" viewBox="0 0 60 60" fill="none" xmlns="http://www.w3.org/2000/svg">
<path d="M46.8303 14.3463C46.8906 14.1565 46.8889 13.9525 46.8255 13.7637C46.7621 13.575 46.6404 13.4113 46.4778 13.2963L30.5403 2.04626C30.3821 1.93482 30.1934 1.875 29.9999 1.875C29.8064 1.875 29.6176 1.93482 29.4594 2.04626L13.5219 13.2963C13.3593 13.411 13.2374 13.5746 13.174 13.7632C13.1105 13.9518 13.1087 14.1558 13.1688 14.3455C13.229 14.5352 13.3479 14.7009 13.5085 14.8185C13.6691 14.9361 13.8629 14.9996 14.0619 14.9997H45.9369C46.1359 14.9997 46.3297 14.9364 46.4903 14.8189C46.651 14.7014 46.77 14.5359 46.8303 14.3463ZM17.016 13.1247L29.9994 3.9597L42.9828 13.1247H17.016ZM16.8744 15.9372V29.0622C16.8744 29.3108 16.9732 29.5493 17.149 29.7251C17.3248 29.9009 17.5633 29.9997 17.8119 29.9997H42.1869C42.4355 29.9997 42.674 29.9009 42.8498 29.7251C43.0256 29.5493 43.1244 29.3108 43.1244 29.0622V15.9372H41.2494V28.1247H29.0619V21.5622C29.0619 21.3136 28.9631 21.0751 28.7873 20.8993C28.6115 20.7235 28.373 20.6247 28.1244 20.6247H22.4994C22.2508 20.6247 22.0123 20.7235 21.8365 20.8993C21.6607 21.0751 21.5619 21.3136 21.5619 21.5622V28.1247H18.7494V15.9372H16.8744ZM23.4369 22.4997H27.1869V24.3747H26.2494V26.2497H27.1869V28.1247H23.4369V22.4997Z" fill="#FF6647"/>
<path d="M38.4375 22.4989C38.6861 22.4989 38.9246 22.4001 39.1004 22.2243C39.2762 22.0485 39.375 21.81 39.375 21.5614V17.8114C39.375 17.5628 39.2762 17.3243 39.1004 17.1485C38.9246 16.9727 38.6861 16.8739 38.4375 16.8739H32.8125C32.5639 16.8739 32.3254 16.9727 32.1496 17.1485C31.9738 17.3243 31.875 17.5628 31.875 17.8114V21.5614C31.875 21.81 31.9738 22.0485 32.1496 22.2243C32.3254 22.4001 32.5639 22.4989 32.8125 22.4989H38.4375ZM33.75 18.7489H37.5V20.6239H33.75V18.7489ZM57.1875 36.5614C57.1876 36.4383 57.1634 36.3163 57.1163 36.2026C57.0691 36.0889 57 35.9855 56.9128 35.8986L53.1628 32.1486C53.0758 32.0615 52.9725 31.9923 52.8588 31.9452C52.745 31.898 52.6231 31.8737 52.5 31.8737C52.3769 31.8737 52.255 31.898 52.1412 31.9452C52.0275 31.9923 51.9242 32.0615 51.8372 32.1486L48.0872 35.8986C48 35.9855 47.9309 36.0889 47.8837 36.2026C47.8366 36.3163 47.8124 36.4383 47.8125 36.5614V39.3739H45.9375V36.5614C45.9376 36.4383 45.9134 36.3163 45.8663 36.2026C45.8191 36.0889 45.75 35.9855 45.6628 35.8986L41.9128 32.1486C41.8258 32.0615 41.7225 31.9923 41.6088 31.9452C41.495 31.898 41.3731 31.8737 41.25 31.8737C41.1269 31.8737 41.005 31.898 40.8912 31.9452C40.7775 31.9923 40.6742 32.0615 40.5872 32.1486L36.8372 35.8986C36.75 35.9855 36.6809 36.0889 36.6337 36.2026C36.5866 36.3163 36.5624 36.4383 36.5625 36.5614V39.3739H34.6875V36.5614C34.6876 36.4383 34.6634 36.3163 34.6163 36.2026C34.5691 36.0889 34.5 35.9855 34.4128 35.8986L30.6628 32.1486C30.5758 32.0615 30.4725 31.9923 30.3588 31.9452C30.245 31.898 30.1231 31.8737 30 31.8737C29.8769 31.8737 29.755 31.898 29.6412 31.9452C29.5275 31.9923 29.4242 32.0615 29.3372 32.1486L25.5872 35.8986C25.5 35.9855 25.4309 36.0889 25.3837 36.2026C25.3366 36.3163 25.3124 36.4383 25.3125 36.5614V39.3739H23.4375V36.5614C23.4376 36.4383 23.4134 36.3163 23.3663 36.2026C23.3191 36.0889 23.25 35.9855 23.1628 35.8986L19.4128 32.1486C19.3258 32.0615 19.2225 31.9923 19.1088 31.9452C18.995 31.898 18.8731 31.8737 18.75 31.8737C18.6269 31.8737 18.505 31.898 18.3912 31.9452C18.2775 31.9923 18.1742 32.0615 18.0872 32.1486L14.3372 35.8986C14.25 35.9855 14.1809 36.0889 14.1337 36.2026C14.0866 36.3163 14.0624 36.4383 14.0625 36.5614V39.3739H12.1875V36.5614C12.1876 36.4383 12.1634 36.3163 12.1163 36.2026C12.0691 36.0889 12 35.9855 11.9128 35.8986L8.16281 32.1486C8.07582 32.0615 7.97251 31.9923 7.85878 31.9452C7.74504 31.898 7.62313 31.8737 7.5 31.8737C7.37687 31.8737 7.25496 31.898 7.14122 31.9452C7.02749 31.9923 6.92418 32.0615 6.83719 32.1486L3.08719 35.8986C3 35.9855 2.93085 36.0889 2.88371 36.2026C2.83657 36.3163 2.81237 36.4383 2.8125 36.5614V39.3739H1.875V41.2489H2.8125V43.1239H1.875V44.9989H2.8125V49.6864H1.875V51.5614H2.8125V53.4364H1.875V55.3114H2.8125V57.1864C2.8125 57.435 2.91127 57.6735 3.08709 57.8493C3.2629 58.0251 3.50136 58.1239 3.75 58.1239H11.25C11.4986 58.1239 11.7371 58.0251 11.9129 57.8493C12.0887 57.6735 12.1875 57.435 12.1875 57.1864V55.3114H14.0625V57.1864C14.0625 57.435 14.1613 57.6735 14.3371 57.8493C14.5129 58.0251 14.7514 58.1239 15 58.1239H22.5C22.7486 58.1239 22.9871 58.0251 23.1629 57.8493C23.3387 57.6735 23.4375 57.435 23.4375 57.1864V55.3114H25.3125V57.1864C25.3125 57.435 25.4113 57.6735 25.5871 57.8493C25.7629 58.0251 26.0014 58.1239 26.25 58.1239H33.75C33.9986 58.1239 34.2371 58.0251 34.4129 57.8493C34.5887 57.6735 34.6875 57.435 34.6875 57.1864V55.3114H36.5625V57.1864C36.5625 57.435 36.6613 57.6735 36.8371 57.8493C37.0129 58.0251 37.2514 58.1239 37.5 58.1239H45C45.2486 58.1239 45.4871 58.0251 45.6629 57.8493C45.8387 57.6735 45.9375 57.435 45.9375 57.1864V55.3114H47.8125V57.1864C47.8125 57.435 47.9113 57.6735 48.0871 57.8493C48.2629 58.0251 48.5014 58.1239 48.75 58.1239H56.25C56.4986 58.1239 56.7371 58.0251 56.9129 57.8493C57.0887 57.6735 57.1875 57.435 57.1875 57.1864V55.3114H58.125V53.4364H57.1875V51.5614H58.125V49.6864H57.1875V44.9989H58.125V43.1239H57.1875V41.2489H58.125V39.3739H57.1875V36.5614ZM10.3125 56.2489H4.6875V36.9495L7.5 34.137L10.3125 36.9495V56.2489ZM14.0625 41.2489V43.1239H12.1875V41.2489H14.0625ZM14.0625 44.9989V49.6864H12.1875V44.9989H14.0625ZM12.1875 53.4364V51.5614H14.0625V53.4364H12.1875ZM21.5625 56.2489H15.9375V36.9495L18.75 34.137L21.5625 36.9495V56.2489ZM25.3125 41.2489V43.1239H23.4375V41.2489H25.3125ZM25.3125 44.9989V49.6864H23.4375V44.9989H25.3125ZM23.4375 53.4364V51.5614H25.3125V53.4364H23.4375ZM32.8125 56.2489H27.1875V36.9495L30 34.137L32.8125 36.9495V56.2489ZM36.5625 41.2489V43.1239H34.6875V41.2489H36.5625ZM36.5625 44.9989V49.6864H34.6875V44.9989H36.5625ZM34.6875 53.4364V51.5614H36.5625V53.4364H34.6875ZM44.0625 56.2489H38.4375V36.9495L41.25 34.137L44.0625 36.9495V56.2489ZM47.8125 41.2489V43.1239H45.9375V41.2489H47.8125ZM47.8125 44.9989V49.6864H45.9375V44.9989H47.8125ZM45.9375 53.4364V51.5614H47.8125V53.4364H45.9375ZM55.3125 56.2489H49.6875V36.9495L52.5 34.137L55.3125 36.9495V56.2489ZM8.4375 29.9989V23.4364H9.4575C9.91419 23.4371 10.3642 23.3264 10.7684 23.114C11.1727 22.9016 11.5191 22.5938 11.7777 22.2174C12.0362 21.8409 12.1991 21.4071 12.2522 20.9535C12.3053 20.4999 12.2471 20.0402 12.0825 19.6142L10.125 14.5255C9.70406 13.4305 8.67375 12.7227 7.5 12.7227C6.32625 12.7227 5.29594 13.4305 4.875 14.5255L2.91844 19.6152C2.75409 20.041 2.69598 20.5005 2.74914 20.9539C2.80231 21.4073 2.96514 21.8409 3.22355 22.2172C3.48196 22.5935 3.82817 22.9012 4.23223 23.1137C4.63628 23.3261 5.08601 23.4369 5.5425 23.4364H6.5625V29.9989H8.4375ZM4.77 21.1545C4.68298 21.0295 4.62813 20.885 4.61031 20.7337C4.59248 20.5825 4.61223 20.4292 4.66781 20.2873L6.62437 15.1977C6.83906 14.6408 7.34906 14.5967 7.5 14.5967C7.65094 14.5967 8.16094 14.6398 8.37563 15.1977L10.3331 20.2873C10.4456 20.5808 10.4081 20.8958 10.2309 21.1545C10.1454 21.2807 10.0301 21.3838 9.89516 21.4548C9.76026 21.5258 9.60993 21.5624 9.4575 21.5614H5.5425C5.39018 21.5625 5.23996 21.5259 5.10519 21.4549C4.97041 21.3839 4.85527 21.2807 4.77 21.1545ZM54.375 25.3114C53.6204 25.3128 52.8839 25.5429 52.2628 25.9714C51.8263 25.4685 51.2867 25.0655 50.6805 24.7899C50.0743 24.5142 49.4159 24.3723 48.75 24.3739C46.1653 24.3739 44.0625 26.4767 44.0625 29.0614C44.0625 29.31 44.1613 29.5485 44.3371 29.7243C44.5129 29.9001 44.7514 29.9989 45 29.9989H57.1875C57.4361 29.9989 57.6746 29.9001 57.8504 29.7243C58.0262 29.5485 58.125 29.31 58.125 29.0614C58.125 26.9933 56.4431 25.3114 54.375 25.3114ZM46.0978 28.1239C46.2924 27.5759 46.6518 27.1016 47.1266 26.7659C47.6014 26.4302 48.1685 26.2496 48.75 26.2489C49.8206 26.2489 50.7834 26.8545 51.2634 27.8286C51.3197 27.943 51.3975 28.0433 51.4912 28.1239H46.0978ZM52.7175 28.1239C52.7709 28.078 52.8197 28.0245 52.8628 27.9664C53.0343 27.7251 53.2611 27.5284 53.5242 27.3927C53.7872 27.257 54.079 27.1863 54.375 27.1864C54.704 27.1866 55.0271 27.2733 55.3119 27.4379C55.5968 27.6024 55.8333 27.839 55.9978 28.1239H52.7175Z" fill="#FF6647"/>
</svg>
