<svg width="60" height="60" viewBox="0 0 60 60" fill="none" xmlns="http://www.w3.org/2000/svg">
<path d="M50.7795 27.8555C50.405 27.5396 49.9358 27.3579 49.4463 27.3392C48.9567 27.3205 48.475 27.4659 48.0776 27.7524L47.1598 28.4142C46.9876 27.9979 46.6909 27.6449 46.3104 27.4036C45.9639 27.1804 45.5613 27.0599 45.1491 27.0561C44.737 27.0523 44.3322 27.1653 43.9817 27.382C43.6029 27.6145 43.3067 27.9502 43.1613 28.282L41.0773 32.0161C40.9404 31.9138 40.7779 31.8511 40.6077 31.8351C40.4375 31.819 40.2662 31.8502 40.1126 31.9252L34.9985 34.4761L26.9998 23.8111C26.8856 23.6585 26.7277 23.5444 26.547 23.4839L22.9292 22.2783C23.8278 21.9847 24.6019 21.3981 25.1276 20.6124C25.4845 20.0747 25.7144 19.463 25.8002 18.8234C25.886 18.1838 25.8252 17.5331 25.6226 16.9205L25.3657 16.148C25.2852 15.9068 25.244 15.6542 25.2438 15.3999V8.40048C27.4573 6.24798 28.0132 3.14767 28.0432 2.96486C28.0655 2.83053 28.0584 2.69296 28.0221 2.5617C27.9859 2.43044 27.9215 2.30865 27.8335 2.20479C27.7454 2.10094 27.6358 2.01751 27.5122 1.96032C27.3886 1.90312 27.2541 1.87353 27.1179 1.87361H16.8157C16.0301 1.86798 9.03728 1.85861 6.5229 4.34579C5.89009 4.97204 5.5554 5.73798 5.5554 6.56111C5.5554 12.2902 8.30978 19.703 8.42697 20.0161C8.56478 20.3817 8.9154 20.6236 9.3054 20.6236L9.33634 20.6227C9.46315 20.6172 9.58748 20.5857 9.70165 20.5302C9.81581 20.4748 9.91739 20.3965 10.0001 20.3002L11.2629 21.9839L5.39509 23.4652C5.01822 23.5608 4.73884 23.8795 4.69384 24.2667L1.88134 48.6417C1.86598 48.773 1.87861 48.9061 1.9184 49.0321C1.95819 49.1582 2.02424 49.2744 2.1122 49.3731C2.20015 49.4717 2.30802 49.5506 2.42869 49.6046C2.54936 49.6586 2.68009 49.6863 2.81228 49.6861V52.4986C2.81228 54.0492 4.07415 55.3111 5.62478 55.3111H8.43728V58.1236H10.3123V51.5611H13.0554C13.304 51.5611 13.5425 51.4623 13.7183 51.2865C13.8941 51.1107 13.9929 50.8722 13.9929 50.6236V45.9361H19.6873V50.6236C19.6873 50.8722 19.7861 51.1107 19.9619 51.2865C20.1377 51.4623 20.3761 51.5611 20.6248 51.5611H22.4998V58.1236H24.3748V51.5611H25.2429C25.4915 51.5611 25.73 51.4623 25.9058 51.2865C26.0816 51.1107 26.1804 50.8722 26.1804 50.6236V35.9986L33.0898 42.8517C33.2197 42.9807 33.3846 43.0687 33.564 43.105C33.7435 43.1413 33.9296 43.1243 34.0995 43.0561L45.146 38.6208C45.3506 38.5391 45.5196 38.3876 45.6231 38.1932C45.7266 37.9987 45.7578 37.7739 45.7113 37.5586C47.1654 36.832 49.0882 35.6002 49.9788 34.5445L52.1904 31.9261C52.5692 31.477 52.752 30.9089 52.7023 30.3239C52.6526 29.7389 52.3788 29.2083 51.9307 28.8295L50.7795 27.8555ZM23.5854 16.7405L23.8432 17.5139C23.9558 17.8553 23.9894 18.2179 23.9415 18.5742C23.8936 18.9305 23.7654 19.2712 23.5667 19.5708C23.3517 19.8951 23.0597 20.161 22.7168 20.3448C22.3739 20.5285 21.9907 20.6243 21.6017 20.6236H12.5867L10.7407 18.1627L12.8182 11.2374C14.3154 11.2008 17.9698 11.0339 21.6767 10.2924C22.2621 10.1751 22.8304 9.98422 23.3679 9.72423V15.3999C23.3679 15.8555 23.441 16.3064 23.5854 16.7405ZM17.6867 29.8899L16.8054 31.6524L15.9242 29.8899L16.8054 26.3639L17.6867 29.8899ZM7.4304 6.56111C7.4304 6.35673 7.47353 6.04361 7.84103 5.67986C9.45353 4.08517 14.5488 3.74767 16.6217 3.74767L16.8045 3.74861H25.8963C25.3873 5.26736 24.116 7.89329 21.3073 8.45486C16.7726 9.36142 12.1638 9.37361 12.1179 9.37361C11.7045 9.37361 11.3388 9.64548 11.2198 10.042L9.26134 16.5708C8.46072 13.927 7.4304 9.87798 7.4304 6.56111ZM8.43728 53.4361H5.62478C5.37614 53.4361 5.13768 53.3373 4.96187 53.1615C4.78605 52.9857 4.68728 52.7472 4.68728 52.4986V49.6861H7.49978V50.6236C7.49978 50.8722 7.59855 51.1107 7.77437 51.2865C7.95018 51.4623 8.18864 51.5611 8.43728 51.5611V53.4361ZM12.1179 49.6861H9.37478V34.6861H7.49978V47.8111H3.86415L6.48165 25.1245L12.1179 23.7014V49.6861ZM13.9929 44.0611V22.4986H15.8398L14.022 29.7717C13.9673 29.9885 13.9923 30.2177 14.0923 30.4177L15.9673 34.1677C16.0446 34.324 16.1641 34.4556 16.3123 34.5476C16.4605 34.6396 16.6315 34.6884 16.8059 34.6884C16.9803 34.6884 17.1512 34.6396 17.2994 34.5476C17.4476 34.4556 17.5671 34.324 17.6445 34.1677L19.5195 30.4177C19.6195 30.2177 19.6444 29.9885 19.5898 29.7717L17.771 22.4986H19.6873V44.0611H13.9929ZM33.972 41.0864L25.9029 33.083C25.7713 32.9532 25.6043 32.8651 25.4228 32.8298C25.2414 32.7946 25.0535 32.8137 24.8829 32.8848C24.7123 32.9559 24.5664 33.0758 24.4637 33.2295C24.3609 33.3832 24.3059 33.5638 24.3054 33.7486V49.6861H21.5623V23.7999L25.676 25.1705L33.2923 35.3264L33.1948 35.3761L34.032 37.0533L40.2954 33.9295L43.2363 37.3674L33.972 41.0864ZM50.7598 30.7149L48.5482 33.3342C47.8413 34.1705 45.911 35.4136 44.5648 36.037L42.3954 33.5011L44.8348 29.1239C44.8612 29.0645 44.905 29.0145 44.9604 28.9805C45.0113 28.9472 45.0708 28.9298 45.1316 28.9305C45.1924 28.9311 45.2515 28.9499 45.3017 28.9842C45.3535 29.016 45.395 29.0621 45.4209 29.1171C45.4469 29.1721 45.4563 29.2334 45.4479 29.2936L45.357 30.0924C45.3365 30.2727 45.3689 30.4552 45.4502 30.6175C45.5315 30.7799 45.6581 30.9151 45.8148 31.0068C45.9715 31.0986 46.1514 31.1428 46.3327 31.1343C46.5141 31.1257 46.689 31.0647 46.8363 30.9586L49.1745 29.2739C49.2326 29.2319 49.3032 29.2106 49.3749 29.2133C49.4465 29.216 49.5153 29.2426 49.5701 29.2889L50.7223 30.263C50.7546 30.29 50.7813 30.3233 50.8007 30.3607C50.8201 30.3981 50.8319 30.4391 50.8354 30.4811C50.8389 30.5231 50.834 30.5654 50.821 30.6056C50.808 30.6457 50.7872 30.6828 50.7598 30.7149Z" fill="#FF6647"/>
<path d="M15.9375 52.4991H17.8125V58.1241H15.9375V52.4991ZM57.4838 14.1103L52.5 12.4491V11.2491H53.4375C53.6352 11.2488 53.8279 11.1861 53.9878 11.0698C54.1477 10.9535 54.2668 10.7896 54.3279 10.6015C54.3891 10.4135 54.3892 10.2109 54.3283 10.0228C54.2674 9.83463 54.1485 9.67058 53.9888 9.55407L51.5625 7.78969V2.81157C51.5625 2.56293 51.4637 2.32447 51.2879 2.14866C51.1121 1.97284 50.8736 1.87407 50.625 1.87407H46.875C46.6264 1.87407 46.3879 1.97284 46.2121 2.14866C46.0363 2.32447 45.9375 2.56293 45.9375 2.81157V3.69751L43.6763 2.05313C43.5163 1.93612 43.3232 1.87305 43.125 1.87305C42.9268 1.87305 42.7337 1.93612 42.5737 2.05313L32.2612 9.55313C32.1005 9.66919 31.9807 9.83328 31.9191 10.0218C31.8576 10.2103 31.8574 10.4134 31.9187 10.602C31.98 10.7906 32.0996 10.9549 32.2602 11.0711C32.4208 11.1874 32.6142 11.2497 32.8125 11.2491H33.75V22.4991H30.9375V24.3741H57.1875C57.4361 24.3741 57.6746 24.2753 57.8504 24.0995C58.0262 23.9237 58.125 23.6852 58.125 23.4366V14.9991C58.1251 14.8023 58.0632 14.6105 57.9481 14.451C57.833 14.2914 57.6705 14.1722 57.4838 14.1103ZM43.125 3.97032L46.3237 6.29626C46.4636 6.39789 46.6287 6.4589 46.8011 6.47253C46.9734 6.48616 47.1461 6.45189 47.3001 6.37351C47.4542 6.29512 47.5836 6.17567 47.674 6.02836C47.7644 5.88105 47.8124 5.7116 47.8125 5.53876V3.74907H49.6875V8.26594C49.6875 8.56594 49.8309 8.84719 50.0737 9.02438L50.5547 9.37407H35.6953L43.125 3.97032ZM45 22.4991H41.25V16.8741H45V22.4991ZM46.875 22.4991V15.9366C46.875 15.6879 46.7762 15.4495 46.6004 15.2737C46.4246 15.0978 46.1861 14.9991 45.9375 14.9991H40.3125C40.0639 14.9991 39.8254 15.0978 39.6496 15.2737C39.4738 15.4495 39.375 15.6879 39.375 15.9366V22.4991H35.625V11.2491H50.625V22.4991H46.875ZM56.25 22.4991H52.5V14.4244L56.25 15.675V22.4991Z" fill="#FF6647"/>
</svg>
