<svg width="40" height="40" viewBox="0 0 40 40" fill="none" xmlns="http://www.w3.org/2000/svg">
<path d="M38.1256 35.0004V33.1254C38.1256 32.9597 38.0598 32.8007 37.9426 32.6835C37.8254 32.5663 37.6664 32.5004 37.5006 32.5004H36.8756V22.5004H38.1256C38.2416 22.5002 38.3552 22.4678 38.4538 22.4067C38.5524 22.3456 38.6321 22.2583 38.684 22.1546C38.7358 22.0509 38.7578 21.9348 38.7475 21.8193C38.7372 21.7037 38.695 21.5934 38.6256 21.5004L36.8756 19.1673V11.2504H37.5006C37.6415 11.2506 37.7784 11.2031 37.8889 11.1157C37.9994 11.0283 38.0772 10.9061 38.1095 10.7689C38.1419 10.6318 38.1269 10.4877 38.0671 10.3601C38.0073 10.2326 37.9061 10.1289 37.78 10.0661L20.28 1.31607C20.1932 1.27262 20.0974 1.25 20.0003 1.25C19.9032 1.25 19.8075 1.27262 19.7206 1.31607L2.22063 10.0661C2.09501 10.1293 1.99437 10.2331 1.93497 10.3606C1.87557 10.4881 1.86086 10.6319 1.89322 10.7688C1.92558 10.9056 2.00312 11.0276 2.11333 11.115C2.22353 11.2024 2.35997 11.2501 2.50063 11.2504H3.12563V19.1673L1.37563 21.5004C1.30574 21.5932 1.26313 21.7037 1.25258 21.8194C1.24203 21.9351 1.26397 22.0514 1.31592 22.1553C1.36787 22.2592 1.44778 22.3466 1.54665 22.4075C1.64553 22.4685 1.75946 22.5007 1.87563 22.5004H3.12563V32.5004H2.50063C2.33487 32.5004 2.1759 32.5663 2.05869 32.6835C1.94148 32.8007 1.87563 32.9597 1.87563 33.1254V35.0004C1.70987 35.0004 1.5509 35.0663 1.43369 35.1835C1.31648 35.3007 1.25063 35.4597 1.25063 35.6254V38.1254C1.25063 38.2912 1.31648 38.4502 1.43369 38.5674C1.5509 38.6846 1.70987 38.7504 1.87563 38.7504H38.1256C38.2914 38.7504 38.4504 38.6846 38.5676 38.5674C38.6848 38.4502 38.7506 38.2912 38.7506 38.1254V35.6254C38.7506 35.4597 38.6848 35.3007 38.5676 35.1835C38.4504 35.0663 38.2914 35.0004 38.1256 35.0004ZM35.6256 35.0004V33.7504H36.8756V35.0004H35.6256ZM35.6256 32.5004H35.0006C34.8349 32.5004 34.6759 32.5663 34.5587 32.6835C34.4415 32.8007 34.3756 32.9597 34.3756 33.1254V35.0004H33.7506V30.0004H32.5006V32.5004H30.6256C30.4599 32.5004 30.3009 32.5663 30.1837 32.6835C30.0665 32.8007 30.0006 32.9597 30.0006 33.1254V35.0004H28.7506V31.2504H30.6256V30.0004H25.6256V31.2504H27.5006V35.0004H26.2506V33.1254C26.2506 32.9597 26.1848 32.8007 26.0676 32.6835C25.9504 32.5663 25.7914 32.5004 25.6256 32.5004H23.7506V30.0004H22.5006V35.0004H21.8756V33.1254C21.8756 32.9597 21.8098 32.8007 21.6926 32.6835C21.5754 32.5663 21.4164 32.5004 21.2506 32.5004H20.6256V22.5004H35.6256V32.5004ZM32.5006 35.0004H31.2506V33.7504H32.5006V35.0004ZM23.7506 33.7504H25.0006V35.0004H23.7506V33.7504ZM20.6256 33.7504V35.0004H19.3756V33.7504H20.6256ZM20.0006 2.5742L34.8531 10.0004H5.14813L20.0006 2.5742ZM35.6256 11.2504V18.7504H4.37563V11.2504H35.6256ZM4.06313 20.0004H35.9381L36.8756 21.2504H3.12563L4.06313 20.0004ZM4.37563 22.5004H19.3756V32.5004H18.7506C18.5849 32.5004 18.4259 32.5663 18.3087 32.6835C18.1915 32.8007 18.1256 32.9597 18.1256 33.1254V35.0004H16.2506V26.2504C16.2506 26.0847 16.1848 25.9257 16.0676 25.8085C15.9504 25.6913 15.7914 25.6254 15.6256 25.6254H8.12563C7.95987 25.6254 7.8009 25.6913 7.68369 25.8085C7.56648 25.9257 7.50063 26.0847 7.50063 26.2504V35.0004H5.62563V33.1254C5.62563 32.9597 5.55978 32.8007 5.44257 32.6835C5.32536 32.5663 5.16639 32.5004 5.00063 32.5004H4.37563V22.5004ZM8.75063 35.0004V26.8754H11.2506V35.0004H8.75063ZM12.5006 26.8754H15.0006V35.0004H12.5006V26.8754ZM3.12563 33.7504H4.37563V35.0004H3.12563V33.7504ZM37.5006 37.5004H2.50063V36.2504H37.5006V37.5004Z" fill="#FF6647"/>
<path d="M8.75 17.5H15C15.1658 17.5 15.3247 17.4342 15.4419 17.3169C15.5592 17.1997 15.625 17.0408 15.625 16.875V13.125C15.625 12.9592 15.5592 12.8003 15.4419 12.6831C15.3247 12.5658 15.1658 12.5 15 12.5H8.75C8.58424 12.5 8.42527 12.5658 8.30806 12.6831C8.19085 12.8003 8.125 12.9592 8.125 13.125V16.875C8.125 17.0408 8.19085 17.1997 8.30806 17.3169C8.42527 17.4342 8.58424 17.5 8.75 17.5ZM9.375 13.75H14.375V16.25H9.375V13.75ZM25 17.5H31.25C31.4158 17.5 31.5747 17.4342 31.6919 17.3169C31.8092 17.1997 31.875 17.0408 31.875 16.875V13.125C31.875 12.9592 31.8092 12.8003 31.6919 12.6831C31.5747 12.5658 31.4158 12.5 31.25 12.5H25C24.8342 12.5 24.6753 12.5658 24.5581 12.6831C24.4408 12.8003 24.375 12.9592 24.375 13.125V16.875C24.375 17.0408 24.4408 17.1997 24.5581 17.3169C24.6753 17.4342 24.8342 17.5 25 17.5ZM25.625 13.75H30.625V16.25H25.625V13.75ZM25 28.75H31.25C31.4158 28.75 31.5747 28.6842 31.6919 28.5669C31.8092 28.4497 31.875 28.2908 31.875 28.125V24.375C31.875 24.2092 31.8092 24.0503 31.6919 23.9331C31.5747 23.8158 31.4158 23.75 31.25 23.75H25C24.8342 23.75 24.6753 23.8158 24.5581 23.9331C24.4408 24.0503 24.375 24.2092 24.375 24.375V28.125C24.375 28.2908 24.4408 28.4497 24.5581 28.5669C24.6753 28.6842 24.8342 28.75 25 28.75ZM25.625 25H30.625V27.5H25.625V25Z" fill="#FF6647"/>
</svg>
