<svg width="40" height="40" viewBox="0 0 40 40" fill="none" xmlns="http://www.w3.org/2000/svg">
<path d="M38.125 7.5H6.25V6.875C6.25 6.70924 6.18415 6.55027 6.06694 6.43306C5.94973 6.31585 5.79076 6.25 5.625 6.25H4.375C2.65188 6.25 1.25 7.65188 1.25 9.375V31.25C1.25 32.6287 2.37125 33.75 3.75 33.75H22.5V38.125C22.5 38.2908 22.5658 38.4497 22.6831 38.5669C22.8003 38.6842 22.9592 38.75 23.125 38.75H33.125C33.2908 38.75 33.4497 38.6842 33.5669 38.5669C33.6842 38.4497 33.75 38.2908 33.75 38.125V33.75H38.125C38.2908 33.75 38.4497 33.6842 38.5669 33.5669C38.6842 33.4497 38.75 33.2908 38.75 33.125V8.125C38.75 7.95924 38.6842 7.80027 38.5669 7.68306C38.4497 7.56585 38.2908 7.5 38.125 7.5ZM2.5 9.375C2.5 8.34125 3.34125 7.5 4.375 7.5H5V28.75H3.75C3.31098 28.7493 2.87964 28.8651 2.5 29.0856V9.375ZM28.75 37.5H27.5V35H28.75V37.5ZM32.5 37.5H30V34.375C30 34.2092 29.9342 34.0503 29.8169 33.9331C29.6997 33.8158 29.5408 33.75 29.375 33.75H26.875C26.7092 33.75 26.5503 33.8158 26.4331 33.9331C26.3158 34.0503 26.25 34.2092 26.25 34.375V37.5H23.75V32.2213L28.125 29.4869L32.5 32.2213V37.5ZM37.5 32.5H33.75V31.875C33.75 31.769 33.723 31.6647 33.6717 31.572C33.6203 31.4793 33.5461 31.4012 33.4562 31.345L28.4562 28.22C28.3568 28.1581 28.2421 28.1253 28.125 28.1253C28.0079 28.1253 27.8932 28.1581 27.7938 28.22L22.7938 31.345C22.7039 31.4012 22.6297 31.4793 22.5783 31.572C22.527 31.6647 22.5 31.769 22.5 31.875V32.5H3.75C3.06062 32.5 2.5 31.9394 2.5 31.25C2.5 30.5606 3.06062 30 3.75 30H5.625C5.79076 30 5.94973 29.9342 6.06694 29.8169C6.18415 29.6997 6.25 29.5408 6.25 29.375V8.75H37.5V32.5Z" fill="#FF6647"/>
<path d="M31.25 26.25V27.4394L28.4525 25.7175C28.354 25.6568 28.2407 25.6247 28.125 25.6247C28.0093 25.6247 27.896 25.6568 27.7975 25.7175L19.6725 30.7175L20.3275 31.7819L28.125 26.9837L35.9225 31.7819L36.5775 30.7175L32.5 28.2087V26.25H31.25ZM8.125 5H33.125C33.2481 5 33.3694 4.96312 33.4719 4.895L35.3469 3.645C35.4323 3.58783 35.5024 3.51047 35.5508 3.41977C35.5993 3.32907 35.6246 3.22783 35.6246 3.125C35.6246 3.02217 35.5993 2.92093 35.5508 2.83023C35.5024 2.73953 35.4323 2.66217 35.3469 2.605L33.4719 1.355C33.3691 1.28671 33.2484 1.2502 33.125 1.25H6.25C5.21625 1.25 4.375 2.09125 4.375 3.125C4.375 4.15875 5.21625 5 6.25 5H8.125ZM8.75 2.5H32.9356L33.8731 3.125L32.9356 3.75H8.75V2.5ZM5.625 3.125C5.625 2.78062 5.90562 2.5 6.25 2.5H7.5V3.75H6.25C5.90562 3.75 5.625 3.46937 5.625 3.125Z" fill="#FF6647"/>
<path d="M8.125 27.5H23.75V26.25H16.25V21.875H23.75V20.625H16.25V15.625H15V26.25H8.75V11.25H15V13.125H16.25V11.25H30V20.625H26.25V21.875H30V25H31.25V10.625C31.25 10.4592 31.1842 10.3003 31.0669 10.1831C30.9497 10.0658 30.7908 10 30.625 10H8.125C7.95924 10 7.80027 10.0658 7.68306 10.1831C7.56585 10.3003 7.5 10.4592 7.5 10.625V26.875C7.5 27.0408 7.56585 27.1997 7.68306 27.3169C7.80027 27.4342 7.95924 27.5 8.125 27.5Z" fill="#FF6647"/>
</svg>
