<svg width="42" height="30" viewBox="0 0 42 30" fill="none" xmlns="http://www.w3.org/2000/svg">
<path d="M9 0C13.9688 0 18 4.03125 18 9V18C18 24.6562 12.5625 30 6 30C4.3125 30 3 28.6875 3 27C3 25.4062 4.3125 24 6 24C9.28125 24 12 21.375 12 18V17.5312C10.9688 17.8125 10.0312 18 9 18C3.9375 18 0 14.0625 0 9C0 4.03125 3.9375 0 9 0ZM42 9V18C42 24.6562 36.5625 30 30 30C28.3125 30 27 28.6875 27 27C27 25.4062 28.3125 24 30 24C33.2812 24 36 21.375 36 18V17.5312C34.9688 17.8125 34.0312 18 33 18C27.9375 18 24 14.0625 24 9C24 4.03125 27.9375 0 33 0C37.9688 0 42 4.03125 42 9Z" fill="#FF6647"/>
</svg>
